# xmcd
#
# Track frame offsets: 
#        183
#        11253
#        23333
#        36358
#        50800
#        65838
#        77078
#        94395
#        112783
#        129840
#        144353
#        155868
#        168843
#        184460
#        199120
#        212575
#
# Disc length: 3013 seconds
#
# Revision: 0
# Processed by: cddbd v1.5.1PL0 Copyright (c) Steve Scherf et al.
# Submitted via: ExactAudioCopy v0.95a3
#
DISCID=d70bc310
DTITLE=Various Artist - Deutsche Trucker Hits - Bekannte deutsche Brummi-Song
DTITLE=s
DYEAR=1988
DGENRE=Country
TTITLE0=Larry Schuba (Western Union) and Tom Astor - Zwei Trucker wie wi
TTITLE0=r
TTITLE1=Western Union - Highway Driver 59
TTITLE2=Ralf Paulsen - Liebe heisst den Truck zu teilen
TTITLE3=Tom Astor - Ich bin ein Gefangener der Autobahn
TTITLE4=The Rangers - Amerika
TTITLE5=Tom Astor - Ist das ein Leben! - So hart und so schön
TTITLE6=West Forest Country Boys - Ich wollte auf'nen echten Zug
TTITLE7=Nashville Studio Band - Jeden Tag das gleiche Spiel
TTITLE8=Tom Astor - Meine Antwort ist die grosse Autobahn
TTITLE9=Nashville Studio Band - Teddybär in Spanien
TTITLE10=Dä Drüjje Peter - Kilometerfresser
TTITLE11=Tom Astor - Ein richtiger Mann ist immer unterwegs
TTITLE12=Western Union - Eigentlich brauch' ich nur Dich
TTITLE13=Gunnar T - Mein Laster wartet schon
TTITLE14=Mike Glenn - Ich hatte doch heut' abend noch was vor
TTITLE15=Country Pickers - Highway Dreams
EXTD=
EXTT0=
EXTT1=
EXTT2=
EXTT3=
EXTT4=
EXTT5=
EXTT6=
EXTT7=
EXTT8=
EXTT9=
EXTT10=
EXTT11=
EXTT12=
EXTT13=
EXTT14=
EXTT15=
PLAYORDER=
